# xmcd CD database file
#
# Track frame offsets:
#	180
#	20740
#	34865
#	46810
#	65175
#	88785
#	97445
#	114985
#	126745
#	153760
#	171575
#	186015
#	194855
#	208845
#	218302
#
# Disc length: 3154 seconds
#
# Revision: 0
# Processed by: cddbd v1.5.2PL0 Copyright (c) Steve Scherf et al.
# Submitted via: CDex 1.51
#
DISCID=e90c500f
DTITLE=Paolo Fresu Quintet - melos
DYEAR=2000
DGENRE=Jazz
TTITLE0=Que reste t'il de nos amours
TTITLE1=Mélos (Varianzione Nove)
TTITLE2=Amerino
TTITLE3=On Second Line
TTITLE4=Ammazare il Tempo
TTITLE5=Por toda minha vida
TTITLE6=Solstizio d'Estade
TTITLE7=Luiza
TTITLE8=Variazione Otto
TTITLE9=Tutto e il contrario di tutto
TTITLE10=Lester
TTITLE11=Cosi
TTITLE12=E' quasi l'Alba
TTITLE13=Varaizione Sei
TTITLE14=Prayer for Sibylle
EXTD=YEAR: 2000
EXTT0=
EXTT1=
EXTT2=
EXTT3=
EXTT4=
EXTT5=
EXTT6=
EXTT7=
EXTT8=
EXTT9=
EXTT10=
EXTT11=
EXTT12=
EXTT13=
EXTT14=
PLAYORDER=
